#!OML:ASF F:\VICON\USERDATA\INSTALL\rory3\rory3.ASF
:FULLY-SPECIFIED
:DEGREES
1932
root -6.38473 20.4184 4.11421 -29.3722 -58.4137 39.0529
lowerback 6.1391 -0.256222 -5.13672
upperback -3.67025 -1.06621 -2.83935
thorax -7.2793 -0.371393 0.0320751
lowerneck -19.2981 0.86346 -6.43811
upperneck -9.36712 1.87899 0.128989
head 0.122156 0.914691 1.2429
rclavicle 1.89715e-014 -6.52014e-014
rhumerus 101.839 -26.7193 -57.8961
rradius 19.418
rwrist 1.49739
rhand -34.8197 -8.27653
rfingers 7.12502
rthumb -7.97072 -38.1062
lclavicle 1.89715e-014 -6.52014e-014
lhumerus 94.6402 31.0544 57.4663
lradius 18.9721
lwrist 13.2684
lhand -12.2502 24.4965
lfingers 7.12502
lthumb 13.8159 54.0177
rfemur -8.6613 23.5398 3.65388
rtibia 24.9942
rfoot 2.41327 -12.6028
rtoes -7.84831
lfemur 18.6268 -7.24933 -12.0024
ltibia 20.4266
lfoot 15.9374 12.7797
ltoes -15.277
1933
root -6.4069 20.4442 4.12056 -29.7022 -58.3361 39.5548
lowerback 6.16481 -0.296795 -5.3128
upperback -3.71329 -1.14012 -2.80837
thorax -7.33511 -0.396776 0.171727
lowerneck -19.4658 0.832144 -6.60115
upperneck -9.5388 1.86563 0.22174
head 0.0896312 0.91222 1.30148
rclavicle -2.70844e-015 7.95139e-015
rhumerus 101.829 -26.7449 -57.4206
rradius 19.6852
rwrist 1.38927
rhand -34.5526 -9.13989
rfingers 7.12502
rthumb -7.71295 -38.9792
lclavicle -2.70844e-015 7.95139e-015
lhumerus 95.1792 31.2462 57.9843
lradius 18.7629
lwrist 13.2143
lhand -12.4222 24.3144
lfingers 7.12502
lthumb 13.6501 53.8469
rfemur -8.3964 24.0834 3.36152
rtibia 24.3825
rfoot 2.4165 -13.2176
rtoes -7.60862
lfemur 19.2639 -7.34231 -11.6063
ltibia 19.9713
lfoot 17.0261 13.7287
ltoes -12.798
1934
root -6.42876 20.4699 4.12761 -29.9649 -58.129 39.9841
lowerback 6.19428 -0.343958 -5.46229
upperback -3.75459 -1.22866 -2.86904
thorax -7.39291 -0.433793 0.202091
lowerneck -19.5191 0.774717 -6.7468
upperneck -9.76322 1.81264 0.463268
head 0.0228422 0.895147 1.40211
rclavicle 6.13251e-014 -3.97569e-014
rhumerus 101.543 -26.956 -56.6677
rradius 20.0131
rwrist 1.1479
rhand -34.8215 -10.0031
rfingers 7.12502
rthumb -7.97253 -39.8327
lclavicle 6.13251e-014 -3.97569e-014
lhumerus 95.8666 31.2412 58.5915
lradius 18.5682
lwrist 13.1777
lhand -12.2618 24.3486
lfingers 7.12502
lthumb 13.8047 53.8706
rfemur -8.04952 24.5325 3.04218
rtibia 23.7742
rfoot 2.26303 -13.9416
rtoes -6.52413
lfemur 19.8122 -7.46164 -11.2108
ltibia 19.5211
lfoot 17.981 14.5484
ltoes -11.2541
1935
root -6.45168 20.497 4.13239 -29.9299 -57.8779 40.078
lowerback 6.25828 -0.419073 -5.50105
upperback -3.80839 -1.34455 -2.89569
thorax -7.48337 -0.487387 0.210257
lowerneck -19.408 0.691171 -6.8239
upperneck -10.1672 1.69071 0.577281
head -0.12621 0.841466 1.44134
rclavicle 3.8266e-014 1.59028e-014
rhumerus 101.473 -27.0494 -56.3136
rradius 20.2104
rwrist 1.3117
rhand -35.1225 -10.1969
rfingers 7.12502
rthumb -8.26296 -40.0153
lclavicle 3.8266e-014 1.59028e-014
lhumerus 96.5909 31.0733 59.2981
lradius 18.3496
lwrist 12.9455
lhand -12.1085 24.408
lfingers 7.12502
lthumb 13.9524 53.9198
rfemur -7.65511 25.0808 2.91421
rtibia 23.1835
rfoot 2.1484 -14.7264
rtoes -6.2684
lfemur 20.2745 -7.79133 -10.7032
ltibia 19.0452
lfoot 18.748 15.3445
ltoes -10.3707
1936
root -6.47451 20.5207 4.13626 -29.9426 -57.592 40.199
lowerback 6.32001 -0.478516 -5.61376
upperback -3.8495 -1.44465 -2.90913
thorax -7.55806 -0.529404 0.2718
lowerneck -19.3139 0.608413 -6.93526
upperneck -10.5239 1.57933 0.661059
head -0.257084 0.793116 1.47853
rclavicle 2.77305e-014 -3.65764e-014
rhumerus 101.906 -26.9642 -56.7488
rradius 20.1195
rwrist 1.6412
rhand -34.8509 -8.53714
rfingers 7.12502
rthumb -8.00083 -38.3657
lclavicle 2.77305e-014 -3.65764e-014
lhumerus 97.1446 30.8884 59.788
lradius 18.1826
lwrist 12.7335
lhand -12.2735 24.3232
lfingers 7.12502
lthumb 13.7935 53.8459
rfemur -7.2724 25.5677 2.75382
rtibia 22.6508
rfoot 2.06888 -15.3435
rtoes -6.27944
lfemur 20.7535 -8.03272 -10.1933
ltibia 18.4867
lfoot 19.4398 16.164
ltoes -9.48469
1937
root -6.49742 20.5398 4.14295 -30.1451 -57.2794 40.5311
lowerback 6.34722 -0.525373 -5.83317
upperback -3.87988 -1.53982 -2.97202
thorax -7.601 -0.566327 0.33983
lowerneck -19.1327 0.585598 -7.08842
upperneck -10.9611 1.55095 0.879995
head -0.431917 0.791222 1.57154
rclavicle -1.2424e-015 -4.13472e-014
rhumerus 102.208 -26.9658 -56.9857
rradius 20.0766
rwrist 1.62512
rhand -34.5453 -7.46852
rfingers 7.12502
rthumb -7.70587 -37.3081
lclavicle -1.2424e-015 -4.13472e-014
lhumerus 97.6612 30.6976 60.2023
lradius 18.075
lwrist 12.699
lhand -12.1379 24.1279
lfingers 7.12502
lthumb 13.9241 53.6417
rfemur -6.89139 26.017 2.43938
rtibia 22.0942
rfoot 1.83323 -15.9323
rtoes -5.64867
lfemur 21.2242 -8.07908 -9.76958
ltibia 17.9608
lfoot 20.0676 16.7973
ltoes -9.22623
